<svg xmlns="http://www.w3.org/2000/svg" width="186" height="48" viewBox="0 0 186 48" fill="none"><g clip-path="url(#clip0_195_3649)"><path d="M13.8476 10.0221C15.601 10.0221 17.195 10.3608 18.6495 11.0183C20.0841 11.6759 21.3194 12.5924 22.3355 13.7679C23.3517 14.9435 24.1487 16.2984 24.7066 17.8326C25.2645 19.3867 25.5434 21.0205 25.5434 22.7938V37.7174H19.0679V22.7938C19.0679 21.0006 18.4303 19.5063 17.1751 18.3307C15.9597 17.1153 14.4852 16.4976 12.7518 16.4976C10.9984 16.4976 9.50406 17.1153 8.28866 18.3307C7.07326 19.5461 6.45559 21.0405 6.45559 22.7938V37.7174H0V10.7792H6.45559V12.8315C7.4319 12.0146 8.52776 11.3371 9.74316 10.8191C10.9785 10.2811 12.3334 10.0221 13.8476 10.0221Z" fill="white"></path><path d="M29.3096 7.62939e-06H35.7652V6.4556H29.3096V7.62939e-06ZM29.3096 37.6975V10.7793H35.7652V37.7174H29.3096V37.6975Z" fill="white"></path><path d="M68.9597 10.0221C70.474 10.0221 71.789 10.3011 72.9247 10.8789C74.0604 11.4567 74.977 12.2537 75.6942 13.2499C76.4115 14.2461 76.9495 15.4217 77.3081 16.7566C77.6668 18.0916 77.8461 19.5262 77.8461 21.0604V37.6975H71.3905V21.0604C71.3905 19.8051 70.9323 18.7292 70.0356 17.8326C69.1789 16.936 68.1029 16.4777 66.8078 16.4777C65.5127 16.4777 64.4368 16.936 63.58 17.8326C62.6834 18.7292 62.2252 19.8051 62.2252 21.0604V37.6975H55.7696V21.0604C55.7696 19.8051 55.3113 18.7292 54.4147 17.8326C53.9764 17.3743 53.4982 17.0157 52.9403 16.8164C52.3824 16.5972 51.8046 16.4976 51.1869 16.4976C49.852 16.4976 48.7561 16.9559 47.8993 17.8525C47.0027 18.7491 46.5445 19.825 46.5445 21.0803V37.7174H40.0889V10.7792H46.5445V13.1503C47.5805 12.2537 48.6764 11.5165 49.832 10.9187C50.9877 10.321 52.1433 10.0221 53.3388 10.0221C54.9527 10.0221 56.2876 10.3409 57.3237 10.9984C58.3598 11.636 59.2962 12.5525 60.1331 13.6882C61.1094 12.6522 62.3646 11.7755 63.8988 11.0781C65.433 10.3608 67.1266 10.0221 68.9597 10.0221Z" fill="white"></path><path d="M94.2034 10.0221C96.1759 10.0221 98.0289 10.3808 99.7424 11.118C101.476 11.8552 102.97 12.8713 104.265 14.1664C105.56 15.4615 106.577 16.9758 107.314 18.6893C108.051 20.4228 108.41 22.2559 108.41 24.2284C108.41 26.1611 108.031 27.9942 107.314 29.7276C106.577 31.461 105.56 32.9554 104.265 34.2505C102.97 35.5456 101.456 36.5618 99.7424 37.299C98.0289 38.0362 96.1759 38.3948 94.2034 38.3948C92.2308 38.3948 90.3778 38.0362 88.6643 37.299C86.9309 36.5618 85.4365 35.5456 84.1414 34.2505C82.8463 32.9554 81.8301 31.4411 81.0929 29.7276C80.3557 27.9942 79.9971 26.181 79.9971 24.2284C79.9971 22.2559 80.3557 20.4029 81.0929 18.6893C81.8301 16.9559 82.8463 15.4615 84.1414 14.1664C85.4365 12.8713 86.9508 11.8552 88.6643 11.118C90.3977 10.3808 92.2308 10.0221 94.2034 10.0221ZM94.2034 16.4777C92.0515 16.4777 90.2184 17.2348 88.7042 18.7491C87.1899 20.2634 86.4327 22.0965 86.4327 24.2483C86.4327 26.3603 87.1899 28.1735 88.7042 29.6878C89.4214 30.4449 90.2583 31.0028 91.2147 31.3813C92.171 31.7599 93.1673 31.9392 94.2034 31.9392C95.2394 31.9392 96.2357 31.7599 97.1721 31.3813C98.1086 31.0028 98.9454 30.4449 99.7026 29.6878C101.217 28.1735 101.974 26.3603 101.974 24.2483C101.974 22.0965 101.217 20.2634 99.7026 18.7491C98.1285 17.2348 96.2954 16.4777 94.2034 16.4777Z" fill="white"></path><path d="M174.62 10.7195V37.6975H168.164V24.2284C168.164 22.0765 167.407 20.2435 165.893 18.7292C164.379 17.2149 162.546 16.4578 160.394 16.4578C159.358 16.4578 158.361 16.657 157.405 17.0555C156.449 17.454 155.612 18.0119 154.895 18.7292C153.38 20.2435 152.623 22.0765 152.623 24.2284C152.623 26.3404 153.38 28.1536 154.895 29.6678C155.612 30.425 156.449 30.9829 157.405 31.3614C158.361 31.74 159.358 31.9193 160.394 31.9193C161.47 31.9193 162.446 31.74 163.303 31.3814L165.614 37.1396C163.96 37.9565 162.048 38.3749 159.856 38.3749C157.883 38.3749 156.05 38.0163 154.396 37.2791C152.723 36.5419 151.288 35.5257 150.053 34.2306C148.837 32.9355 147.881 31.4212 147.204 29.7077C146.526 27.9742 146.188 26.1611 146.188 24.2085C146.188 22.2359 146.526 20.3829 147.204 18.6694C147.881 16.936 148.837 15.4416 150.053 14.1465C151.268 12.8514 152.723 11.8353 154.396 11.0981C156.07 10.3608 157.883 10.0022 159.856 10.0022C161.609 10.0022 163.183 10.2811 164.538 10.8191C165.893 11.3571 167.108 12.0345 168.144 12.8713V10.7195H174.62Z" fill="#64C8FA"></path><path d="M178.924 1.52588e-05H185.379V6.45561H178.924V1.52588e-05ZM178.924 37.6975V10.7793H185.379V37.7174H178.924V37.6975Z" fill="#64C8FA"></path><path d="M143.458 31.1821H137.002V37.6377H143.458V31.1821Z" fill="#64C8FA"></path><path d="M116.859 9.86272H109.726L119.17 30.0863C118.094 34.4099 114.089 34.8482 112.236 34.5095L110.503 41.0647H113.97C120.146 40.6065 123.215 37.02 123.992 35.2866L135.747 9.8428H128.614L122.637 22.5547L116.859 9.86272Z" fill="white"></path></g><defs><clipPath id="clip0_195_3649"><rect width="185.399" height="47.5402" fill="white"></rect></clipPath></defs></svg>